
<svg xmlns="http://www.w3.org/2000/svg" xmlns:xlink="http://www.w3.org/1999/xlink" viewBox="0 0 1440 900" width="1440" height="900" fill="none">
  <rect width="1440" height="900" fill="#161211"></rect>
  <g opacity="100%">
    <rect x="0" y="0" width="1440" height="60" fill="#222224" filter="url(#filter_dshadow_0_0_2_03030314)"></rect>
  </g>
  <svg xmlns="http://www.w3.org/2000/svg" viewBox="0 0 512 512" width="16" height="16" fill="#f7ffff" x="16" y="22" opacity="100%">
    <path d="M0 405.3V448c0 35.3 86 64 192 64s192-28.7 192-64v-42.7C342.7 434.4 267.2 448 192 448S41.3 434.4 0 405.3zM320 128c106 0 192-28.7 192-64S426 0 320 0 128 28.7 128 64s86 64 192 64zM0 300.4V352c0 35.3 86 64 192 64s192-28.7 192-64v-51.6c-41.3 34-116.9 51.6-192 51.6S41.3 334.4 0 300.4zm416 11c57.3-11.1 96-31.7 96-55.4v-42.7c-23.2 16.4-57.3 27.6-96 34.5v63.6zM192 160C86 160 0 195.8 0 240s86 80 192 80 192-35.8 192-80-86-80-192-80zm219.3 56.3c60-10.8 100.7-32 100.7-56.3v-42.7c-35.5 25.1-96.5 38.6-160.7 41.8 29.5 14.3 51.2 33.5 60 57.2z"></path>
  </svg>
  <g opacity="100%" mask="url(#mask_u5ewvtvw6)">
    <text x="40" y="37.5" font-family="Quicksand" font-size="20" fill="#f7ffff" letter-spacing="0" font-weight="normal" font-style="normal">BST</text>
    <text x="40" y="65.5" font-family="Quicksand" font-size="20" fill="#f7ffff" letter-spacing="0" font-weight="normal" font-style="normal">Staking</text>
    <defs>
      <mask id="mask_u5ewvtvw6">
        <rect x="40" y="16" width="94" height="28" fill="white"></rect>
      </mask>
    </defs>
  </g>
  <g opacity="100%" mask="url(#mask_h9xge39l6n)">
    <text x="1260" y="35" font-family="Quicksand" font-size="14" fill="#f7ffff" letter-spacing="0" font-weight="normal" font-style="normal">Hom</text>
    <text x="1260" y="55" font-family="Quicksand" font-size="14" fill="#f7ffff" letter-spacing="0" font-weight="normal" font-style="normal">e</text>
    <defs>
      <mask id="mask_h9xge39l6n">
        <rect x="1260" y="20" width="36" height="20" fill="white"></rect>
      </mask>
    </defs>
  </g>
  <g opacity="100%" mask="url(#mask_9ohbrn028e)">
    <text x="1312" y="35" font-family="Quicksand" font-size="14" fill="#f7ffff" letter-spacing="0" font-weight="normal" font-style="normal">Feature</text>
    <text x="1312" y="55" font-family="Quicksand" font-size="14" fill="#f7ffff" letter-spacing="0" font-weight="normal" font-style="normal">s</text>
    <defs>
      <mask id="mask_9ohbrn028e">
        <rect x="1312" y="20" width="51" height="20" fill="white"></rect>
      </mask>
    </defs>
  </g>
  <g opacity="100%" mask="url(#mask_rv1gkgim2v)">
    <text x="1378" y="35" font-family="Quicksand" font-size="14" fill="#f7ffff" letter-spacing="0" font-weight="normal" font-style="normal">Conta</text>
    <text x="1378" y="55" font-family="Quicksand" font-size="14" fill="#f7ffff" letter-spacing="0" font-weight="normal" font-style="normal">ct</text>
    <defs>
      <mask id="mask_rv1gkgim2v">
        <rect x="1378" y="20" width="46" height="20" fill="white"></rect>
      </mask>
    </defs>
  </g>
  <g opacity="100%">
    <rect x="32.5" y="92.5" width="1375" height="183" fill="#161211" stroke="#222224" stroke-width="1" rx="2" filter="url(#filter_dshadow_0_0_0_03030314)"></rect>
  </g>
  <g opacity="100%">
    <text x="56" y="146" font-family="Quicksand" font-size="32" fill="#f7ffff" letter-spacing="0" font-weight="600" font-style="normal">Stake Your BST Tokens</text>
  </g>
  <g opacity="100%">
    <text x="56" y="186" font-family="Quicksand" font-size="16" fill="#f7ffff" letter-spacing="0" font-weight="normal" font-style="normal">Unlock premium features, VIP content, and enjoy passive income by staking your BST tokens.</text>
  </g>
  <g opacity="100%">
    <rect filter="url(#filter_dshadow_0_0_0_03030314)" x="56" y="216" width="144" height="36" fill="#9663dd" rx="2"></rect>
    <text x="66" y="239" font-family="Quicksand" font-size="14" fill="#0e0e0c" letter-spacing="0" font-weight="700" font-style="normal">
      <tspan>Start Staking Now</tspan>
    </text>
  </g>
  <g opacity="100%">
    <rect x="32.5" y="308.5" width="1375" height="219" fill="#161211" stroke="#222224" stroke-width="1" rx="2" filter="url(#filter_dshadow_0_0_0_03030314)"></rect>
  </g>
  <g opacity="100%">
    <text x="56" y="352.5" font-family="Quicksand" font-size="18" fill="#f7ffff" letter-spacing="0" font-weight="600" font-style="normal">Staking Benefits</text>
  </g>
  <g opacity="100%">
    <rect x="56.5" y="376.5" width="426" height="127" fill="#161211" stroke="#222224" stroke-width="1" rx="2" filter="url(#filter_dshadow_0_0_0_03030314)"></rect>
  </g>
  <g opacity="100%">
    <text x="72" y="412.5" font-family="Quicksand" font-size="18" fill="#f7ffff" letter-spacing="0" font-weight="600" font-style="normal">Bronze 🎬</text>
  </g>
  <g opacity="100%">
    <text x="72" y="443" font-family="Quicksand" font-size="14" fill="#f7ffff" letter-spacing="0" font-weight="normal" font-style="normal">500 BST</text>
  </g>
  <g opacity="100%">
    <text x="72" y="463" font-family="Quicksand" font-size="14" fill="#f7ffff" letter-spacing="0" font-weight="normal" font-style="normal">✅ Ad-Free Experience</text>
  </g>
  <g opacity="100%">
    <text x="72" y="483" font-family="Quicksand" font-size="14" fill="#f7ffff" letter-spacing="0" font-weight="normal" font-style="normal">✅ Watch-to-Earn Boost</text>
  </g>
  <g opacity="100%">
    <rect x="506.5" y="376.5" width="426" height="127" fill="#161211" stroke="#222224" stroke-width="1" rx="2" filter="url(#filter_dshadow_0_0_0_03030314)"></rect>
  </g>
  <g opacity="100%">
    <text x="522" y="412.5" font-family="Quicksand" font-size="18" fill="#f7ffff" letter-spacing="0" font-weight="600" font-style="normal">Silver 🎥</text>
  </g>
  <g opacity="100%">
    <text x="522" y="443" font-family="Quicksand" font-size="14" fill="#f7ffff" letter-spacing="0" font-weight="normal" font-style="normal">1,500 BST</text>
  </g>
  <g opacity="100%">
    <text x="522" y="463" font-family="Quicksand" font-size="14" fill="#f7ffff" letter-spacing="0" font-weight="normal" font-style="normal">✅ Priority Access to New Releases</text>
  </g>
  <g opacity="100%">
    <text x="522" y="483" font-family="Quicksand" font-size="14" fill="#f7ffff" letter-spacing="0" font-weight="normal" font-style="normal">✅ Exclusive NFTs</text>
  </g>
  <g opacity="100%">
    <rect x="957.5" y="376.5" width="426" height="127" fill="#161211" stroke="#222224" stroke-width="1" rx="2" filter="url(#filter_dshadow_0_0_0_03030314)"></rect>
  </g>
  <g opacity="100%">
    <text x="973" y="412.5" font-family="Quicksand" font-size="18" fill="#f7ffff" letter-spacing="0" font-weight="600" font-style="normal">Gold ⭐</text>
  </g>
  <g opacity="100%">
    <text x="973" y="443" font-family="Quicksand" font-size="14" fill="#f7ffff" letter-spacing="0" font-weight="normal" font-style="normal">5,000 BST</text>
  </g>
  <g opacity="100%">
    <text x="973" y="463" font-family="Quicksand" font-size="14" fill="#f7ffff" letter-spacing="0" font-weight="normal" font-style="normal">✅ Revenue Share from Platform Earnings</text>
  </g>
  <g opacity="100%">
    <text x="973" y="483" font-family="Quicksand" font-size="14" fill="#f7ffff" letter-spacing="0" font-weight="normal" font-style="normal">✅ Executive DAO Vote</text>
  </g>
  <g opacity="100%">
    <rect x="32.5" y="560.5" width="1375" height="115" fill="#161211" stroke="#222224" stroke-width="1" rx="2" filter="url(#filter_dshadow_0_0_0_03030314)"></rect>
  </g>
  <g opacity="100%">
    <text x="56" y="604.5" font-family="Quicksand" font-size="18" fill="#f7ffff" letter-spacing="0" font-weight="600" font-style="normal">Solidity Smart Contract for Staking</text>
  </g>
  <g opacity="100%">
    <text x="56" y="646" font-family="Quicksand" font-size="16" fill="#f7ffff" letter-spacing="0" font-weight="normal" font-style="normal">Our staking mechanism is powered by a Solidity smart contract ensuring secure and transparent operations.</text>
  </g>
  <g opacity="100%">
    <rect x="0" y="776" width="1440" height="124" fill="#222224" filter="url(#filter_dshadow_0_0_2_03030314)"></rect>
  </g>
  <g opacity="100%">
    <text x="24" y="820.5" font-family="Quicksand" font-size="18" fill="#fff" letter-spacing="0" font-weight="600" font-style="normal">Contact Us</text>
  </g>
  <g opacity="100%" mask="url(#mask_eosjc655sl)">
    <text x="24" y="851" font-family="Quicksand" font-size="14" fill="#fff" letter-spacing="0" font-weight="normal" font-style="normal">Email:</text>
    <text x="24" y="871" font-family="Quicksand" font-size="14" fill="#fff" letter-spacing="0" font-weight="normal" font-style="normal">support@bststaking.com</text>
    <defs>
      <mask id="mask_eosjc655sl">
        <rect x="24" y="836" width="187" height="20" fill="white"></rect>
      </mask>
    </defs>
  </g>
  <g opacity="100%">
    <text x="24" y="871" font-family="Quicksand" font-size="14" fill="#fff" letter-spacing="0" font-weight="normal" font-style="normal">Phone: +123 456 7890</text>
  </g>
  <g opacity="100%" mask="url(#mask_qerd12uckk)">
    <text x="1338" y="820.5" font-family="Quicksand" font-size="18" fill="#fff" letter-spacing="0" font-weight="600" font-style="normal">Follow</text>
    <text x="1338" y="848.5" font-family="Quicksand" font-size="18" fill="#fff" letter-spacing="0" font-weight="600" font-style="normal">Us</text>
    <defs>
      <mask id="mask_qerd12uckk">
        <rect x="1338" y="800" width="78" height="28" fill="white"></rect>
      </mask>
    </defs>
  </g>
  <svg xmlns="http://www.w3.org/2000/svg" viewBox="0 0 512 512" width="16" height="16" fill="#fff" x="1338" y="836" opacity="100%">
    <path d="M504 256C504 119 393 8 256 8S8 119 8 256c0 123.78 90.69 226.38 209.25 245V327.69h-63V256h63v-54.64c0-62.15 37-96.48 93.67-96.48 27.14 0 55.52 4.84 55.52 4.84v61h-31.28c-30.8 0-40.41 19.12-40.41 38.73V256h68.78l-11 71.69h-57.78V501C413.31 482.38 504 379.78 504 256z"></path>
  </svg>
  <svg xmlns="http://www.w3.org/2000/svg" viewBox="0 0 512 512" width="16" height="16" fill="#fff" x="1370" y="836" opacity="100%">
    <path d="M459.37 151.716c.325 4.548.325 9.097.325 13.645 0 138.72-105.583 298.558-298.558 298.558-59.452 0-114.68-17.219-161.137-47.106 8.447.974 16.568 1.299 25.34 1.299 49.055 0 94.213-16.568 130.274-44.832-46.132-.975-84.792-31.188-98.112-72.772 6.498.974 12.995 1.624 19.818 1.624 9.421 0 18.843-1.3 27.614-3.573-48.081-9.747-84.143-51.98-84.143-102.985v-1.299c13.969 7.797 30.214 12.67 47.431 13.319-28.264-18.843-46.781-51.005-46.781-87.391 0-19.492 5.197-37.36 14.294-52.954 51.655 63.675 129.3 105.258 216.365 109.807-1.624-7.797-2.599-15.918-2.599-24.04 0-57.828 46.782-104.934 104.934-104.934 30.213 0 57.502 12.67 76.67 33.137 23.715-4.548 46.456-13.32 66.599-25.34-7.798 24.366-24.366 44.833-46.132 57.827 21.117-2.273 41.584-8.122 60.426-16.243-14.292 20.791-32.161 39.308-52.628 54.253z"></path>
  </svg>
  <svg xmlns="http://www.w3.org/2000/svg" viewBox="0 0 448 512" width="14" height="14" fill="#fff" x="1402" y="837" opacity="100%">
    <path d="M224.1 141c-63.6 0-114.9 51.3-114.9 114.9s51.3 114.9 114.9 114.9S339 319.5 339 255.9 287.7 141 224.1 141zm0 189.6c-41.1 0-74.7-33.5-74.7-74.7s33.5-74.7 74.7-74.7 74.7 33.5 74.7 74.7-33.6 74.7-74.7 74.7zm146.4-194.3c0 14.9-12 26.8-26.8 26.8-14.9 0-26.8-12-26.8-26.8s12-26.8 26.8-26.8 26.8 12 26.8 26.8zm76.1 27.2c-1.7-35.9-9.9-67.7-36.2-93.9-26.2-26.2-58-34.4-93.9-36.2-37-2.1-147.9-2.1-184.9 0-35.8 1.7-67.6 9.9-93.9 36.1s-34.4 58-36.2 93.9c-2.1 37-2.1 147.9 0 184.9 1.7 35.9 9.9 67.7 36.2 93.9s58 34.4 93.9 36.2c37 2.1 147.9 2.1 184.9 0 35.9-1.7 67.7-9.9 93.9-36.2 26.2-26.2 34.4-58 36.2-93.9 2.1-37 2.1-147.8 0-184.8zM398.8 388c-7.8 19.6-22.9 34.7-42.6 42.6-29.5 11.7-99.5 9-132.1 9s-102.7 2.6-132.1-9c-19.6-7.8-34.7-22.9-42.6-42.6-11.7-29.5-9-99.5-9-132.1s-2.6-102.7 9-132.1c7.8-19.6 22.9-34.7 42.6-42.6 29.5-11.7 99.5-9 132.1-9s102.7-2.6 132.1 9c19.6 7.8 34.7 22.9 42.6 42.6 11.7 29.5 9 99.5 9 132.1s2.7 102.7-9 132.1z"></path>
  </svg>
  <defs>
    <filter id="filter_dshadow_0_0_2_03030314" color-interpolation-filters="sRGB" filterUnits="userSpaceOnUse">
      <feFlood flood-opacity="0" result="bg-fix"></feFlood>
      <feColorMatrix in="SourceAlpha" type="matrix" values="0 0 0 0 0 0 0 0 0 0 0 0 0 0 0 0 0 0 127 0" result="alpha"></feColorMatrix>
      <feOffset dx="0" dy="2"></feOffset>
      <feGaussianBlur stdDeviation="0"></feGaussianBlur>
      <feComposite in2="alpha" operator="out"></feComposite>
      <feColorMatrix type="matrix" values="0 0 0 0 0.011764705882352941 0 0 0 0 0.011764705882352941 0 0 0 0 0.011764705882352941 0 0 0 0.08 0"></feColorMatrix>
      <feBlend mode="normal" in2="bg-fix" result="bg-fix-filter_dshadow_0_0_2_03030314"></feBlend>
      <feBlend in="SourceGraphic" in2="bg-fix-filter_dshadow_0_0_2_03030314" result="shape"></feBlend>
    </filter>
    <filter id="filter_dshadow_0_0_0_000000639c" color-interpolation-filters="sRGB" filterUnits="userSpaceOnUse">
      <feFlood flood-opacity="0" result="bg-fix"></feFlood>
      <feColorMatrix in="SourceAlpha" type="matrix" values="0 0 0 0 0 0 0 0 0 0 0 0 0 0 0 0 0 0 127 0" result="alpha"></feColorMatrix>
      <feOffset dx="0" dy="0"></feOffset>
      <feGaussianBlur stdDeviation="0"></feGaussianBlur>
      <feComposite in2="alpha" operator="out"></feComposite>
      <feColorMatrix type="matrix" values="0 0 0 0 0 0 0 0 0 0 0 0 0 0 0 0 0 0 100 0"></feColorMatrix>
      <feBlend mode="normal" in2="bg-fix" result="bg-fix-filter_dshadow_0_0_0_000000639c"></feBlend>
      <feBlend in="SourceGraphic" in2="bg-fix-filter_dshadow_0_0_0_000000639c" result="shape"></feBlend>
    </filter>
    <filter id="filter_dshadow_0_0_0_03030314" color-interpolation-filters="sRGB" filterUnits="userSpaceOnUse">
      <feFlood flood-opacity="0" result="bg-fix"></feFlood>
      <feColorMatrix in="SourceAlpha" type="matrix" values="0 0 0 0 0 0 0 0 0 0 0 0 0 0 0 0 0 0 127 0" result="alpha"></feColorMatrix>
      <feOffset dx="0" dy="0"></feOffset>
      <feGaussianBlur stdDeviation="0"></feGaussianBlur>
      <feComposite in2="alpha" operator="out"></feComposite>
      <feColorMatrix type="matrix" values="0 0 0 0 0.011764705882352941 0 0 0 0 0.011764705882352941 0 0 0 0 0.011764705882352941 0 0 0 0.08 0"></feColorMatrix>
      <feBlend mode="normal" in2="bg-fix" result="bg-fix-filter_dshadow_0_0_0_03030314"></feBlend>
      <feBlend in="SourceGraphic" in2="bg-fix-filter_dshadow_0_0_0_03030314" result="shape"></feBlend>
    </filter>
    <style id="google">@import url(https://fonts.googleapis.com/css2?family=Quicksand:ital,wght@0,300;0,400;0,500;0,600;0,700&amp;display=swap);
</style>
    <style id="brand"></style>
  </defs>
</svg>