
<svg xmlns="http://www.w3.org/2000/svg" xmlns:xlink="http://www.w3.org/1999/xlink" viewBox="0 0 1440 900" width="1440" height="900" fill="none">
  <rect width="1440" height="900" fill="#161211"></rect>
  <g opacity="100%">
    <rect x="0" y="0" width="1440" height="88" fill="#222224" filter="url(#filter_dshadow_0_0_2_03030314)"></rect>
  </g>
  <svg xmlns="http://www.w3.org/2000/svg" viewBox="0 0 640 512" width="30" height="30" fill="#f7ffff" x="24" y="29" opacity="100%">
    <path d="M150.94 192h33.73c11.01 0 18.61-10.83 14.86-21.18-4.93-13.58-7.55-27.98-7.55-42.82s2.62-29.24 7.55-42.82C203.29 74.83 195.68 64 184.67 64h-33.73c-7.01 0-13.46 4.49-15.41 11.23C130.64 92.21 128 109.88 128 128c0 18.12 2.64 35.79 7.54 52.76 1.94 6.74 8.39 11.24 15.4 11.24zM89.92 23.34C95.56 12.72 87.97 0 75.96 0H40.63c-6.27 0-12.14 3.59-14.74 9.31C9.4 45.54 0 85.65 0 128c0 24.75 3.12 68.33 26.69 118.86 2.62 5.63 8.42 9.14 14.61 9.14h34.84c12.02 0 19.61-12.74 13.95-23.37-49.78-93.32-16.71-178.15-.17-209.29zM614.06 9.29C611.46 3.58 605.6 0 599.33 0h-35.42c-11.98 0-19.66 12.66-14.02 23.25 18.27 34.29 48.42 119.42.28 209.23-5.72 10.68 1.8 23.52 13.91 23.52h35.23c6.27 0 12.13-3.58 14.73-9.29C630.57 210.48 640 170.36 640 128s-9.42-82.48-25.94-118.71zM489.06 64h-33.73c-11.01 0-18.61 10.83-14.86 21.18 4.93 13.58 7.55 27.98 7.55 42.82s-2.62 29.24-7.55 42.82c-3.76 10.35 3.85 21.18 14.86 21.18h33.73c7.02 0 13.46-4.49 15.41-11.24 4.9-16.97 7.53-34.64 7.53-52.76 0-18.12-2.64-35.79-7.54-52.76-1.94-6.75-8.39-11.24-15.4-11.24zm-116.3 100.12c7.05-10.29 11.2-22.71 11.2-36.12 0-35.35-28.63-64-63.96-64-35.32 0-63.96 28.65-63.96 64 0 13.41 4.15 25.83 11.2 36.12l-130.5 313.41c-3.4 8.15.46 17.52 8.61 20.92l29.51 12.31c8.15 3.4 17.52-.46 20.91-8.61L244.96 384h150.07l49.2 118.15c3.4 8.16 12.76 12.01 20.91 8.61l29.51-12.31c8.15-3.4 12-12.77 8.61-20.92l-130.5-313.41zM271.62 320L320 203.81 368.38 320h-96.76z"></path>
  </svg>
  <g opacity="100%" mask="url(#mask_ghexlx4z6a)">
    <text x="66" y="50.5" font-family="Quicksand" font-size="18" fill="#f7ffff" letter-spacing="0" font-weight="700" font-style="normal">Decentralized Ad</text>
    <text x="66" y="78.5" font-family="Quicksand" font-size="18" fill="#f7ffff" letter-spacing="0" font-weight="700" font-style="normal">Network</text>
    <defs>
      <mask id="mask_ghexlx4z6a">
        <rect x="66" y="30" width="206" height="28" fill="white"></rect>
      </mask>
    </defs>
  </g>
  <g opacity="100%">
    <rect filter="url(#filter_dshadow_0_0_0_03030314)" x="1121" y="24" width="78" height="40" fill="#9663dd" rx="2"></rect>
    <text x="1137.5" y="50" font-family="Quicksand" font-size="16" fill="#0e0e0c" letter-spacing="0" font-weight="500" font-style="normal">
      <tspan>Home</tspan>
    </text>
  </g>
  <g opacity="100%">
    <rect filter="url(#filter_dshadow_0_0_0_03030314)" x="1223" y="24" width="78" height="40" fill="#9663dd" rx="2"></rect>
    <text x="1239.5" y="50" font-family="Quicksand" font-size="16" fill="#0e0e0c" letter-spacing="0" font-weight="500" font-style="normal">
      <tspan>About</tspan>
    </text>
  </g>
  <g opacity="100%">
    <rect filter="url(#filter_dshadow_0_0_0_03030314)" x="1325" y="24" width="91" height="40" fill="#9663dd" rx="2"></rect>
    <text x="1341" y="50" font-family="Quicksand" font-size="16" fill="#0e0e0c" letter-spacing="0" font-weight="500" font-style="normal">
      <tspan>Contact</tspan>
    </text>
  </g>
  <g opacity="100%">
    <text x="32" y="150" font-family="Quicksand" font-size="32" fill="#f7ffff" letter-spacing="0" font-weight="600" font-style="normal">📌 Decentralized Ad Network &amp; Tokenized Sponsorships</text>
  </g>
  <g opacity="100%">
    <text x="32" y="190" font-family="Quicksand" font-size="16" fill="#f7ffff" letter-spacing="0" font-weight="normal" font-style="normal">Advertisers pay content creators &amp; users directly via blockchain-based ads.</text>
  </g>
  <g opacity="100%">
    <rect x="32.5" y="212.5" width="437" height="155" fill="#161211" stroke="#222224" stroke-width="1" rx="2" filter="url(#filter_dshadow_0_0_0_03030314)"></rect>
  </g>
  <svg xmlns="http://www.w3.org/2000/svg" viewBox="0 0 512 512" width="30" height="30" fill="#f7ffff" x="56" y="239" opacity="100%">
    <path d="M0 405.3V448c0 35.3 86 64 192 64s192-28.7 192-64v-42.7C342.7 434.4 267.2 448 192 448S41.3 434.4 0 405.3zM320 128c106 0 192-28.7 192-64S426 0 320 0 128 28.7 128 64s86 64 192 64zM0 300.4V352c0 35.3 86 64 192 64s192-28.7 192-64v-51.6c-41.3 34-116.9 51.6-192 51.6S41.3 334.4 0 300.4zm416 11c57.3-11.1 96-31.7 96-55.4v-42.7c-23.2 16.4-57.3 27.6-96 34.5v63.6zM192 160C86 160 0 195.8 0 240s86 80 192 80 192-35.8 192-80-86-80-192-80zm219.3 56.3c60-10.8 100.7-32 100.7-56.3v-42.7c-35.5 25.1-96.5 38.6-160.7 41.8 29.5 14.3 51.2 33.5 60 57.2z"></path>
  </svg>
  <g opacity="100%" mask="url(#mask_p8k0k5ozx)">
    <text x="56" y="308.5" font-family="Quicksand" font-size="18" fill="#f7ffff" letter-spacing="0" font-weight="600" font-style="normal">Ad Revenue Goes Directly to Users &amp;</text>
    <text x="56" y="336.5" font-family="Quicksand" font-size="18" fill="#f7ffff" letter-spacing="0" font-weight="600" font-style="normal">Creators</text>
    <defs>
      <mask id="mask_p8k0k5ozx">
        <rect x="56" y="288" width="390" height="28" fill="white"></rect>
      </mask>
    </defs>
  </g>
  <g opacity="100%">
    <text x="56" y="339" font-family="Quicksand" font-size="14" fill="#f7ffff" letter-spacing="0" font-weight="normal" font-style="normal">No Centralized Cuts</text>
  </g>
  <g opacity="100%">
    <rect x="501.5" y="212.5" width="437" height="155" fill="#161211" stroke="#222224" stroke-width="1" rx="2" filter="url(#filter_dshadow_0_0_0_03030314)"></rect>
  </g>
  <svg xmlns="http://www.w3.org/2000/svg" viewBox="0 0 512 512" width="30" height="30" fill="#f7ffff" x="525" y="239" opacity="100%">
    <path d="M32 448c0 17.7 14.3 32 32 32h160V320H32v128zm256 32h160c17.7 0 32-14.3 32-32V320H288v160zm192-320h-42.1c6.2-12.1 10.1-25.5 10.1-40 0-48.5-39.5-88-88-88-41.6 0-68.5 21.3-103 68.3-34.5-47-61.4-68.3-103-68.3-48.5 0-88 39.5-88 88 0 14.5 3.8 27.9 10.1 40H32c-17.7 0-32 14.3-32 32v80c0 8.8 7.2 16 16 16h480c8.8 0 16-7.2 16-16v-80c0-17.7-14.3-32-32-32zm-326.1 0c-22.1 0-40-17.9-40-40s17.9-40 40-40c19.9 0 34.6 3.3 86.1 80h-86.1zm206.1 0h-86.1c51.4-76.5 65.7-80 86.1-80 22.1 0 40 17.9 40 40s-17.9 40-40 40z"></path>
  </svg>
  <g opacity="100%">
    <text x="525" y="308.5" font-family="Quicksand" font-size="18" fill="#f7ffff" letter-spacing="0" font-weight="600" font-style="normal">Ad Token Rewards for Users Who Watch Ads</text>
  </g>
  <g opacity="100%">
    <text x="525" y="339" font-family="Quicksand" font-size="14" fill="#f7ffff" letter-spacing="0" font-weight="normal" font-style="normal">Opt-In Model</text>
  </g>
  <g opacity="100%">
    <rect x="970.5" y="212.5" width="437" height="155" fill="#161211" stroke="#222224" stroke-width="1" rx="2" filter="url(#filter_dshadow_0_0_0_03030314)"></rect>
  </g>
  <svg xmlns="http://www.w3.org/2000/svg" viewBox="0 0 640 512" width="36" height="36" fill="#f7ffff" x="995" y="236" opacity="100%">
    <path d="M434.7 64h-85.9c-8 0-15.7 3-21.6 8.4l-98.3 90c-.1.1-.2.3-.3.4-16.6 15.6-16.3 40.5-2.1 56 12.7 13.9 39.4 17.6 56.1 2.7.1-.1.3-.1.4-.2l79.9-73.2c6.5-5.9 16.7-5.5 22.6 1 6 6.5 5.5 16.6-1 22.6l-26.1 23.9L504 313.8c2.9 2.4 5.5 5 7.9 7.7V128l-54.6-54.6c-5.9-6-14.1-9.4-22.6-9.4zM544 128.2v223.9c0 17.7 14.3 32 32 32h64V128.2h-96zm48 223.9c-8.8 0-16-7.2-16-16s7.2-16 16-16 16 7.2 16 16-7.2 16-16 16zM0 384h64c17.7 0 32-14.3 32-32V128.2H0V384zm48-63.9c8.8 0 16 7.2 16 16s-7.2 16-16 16-16-7.2-16-16c0-8.9 7.2-16 16-16zm435.9 18.6L334.6 217.5l-30 27.5c-29.7 27.1-75.2 24.5-101.7-4.4-26.9-29.4-24.8-74.9 4.4-101.7L289.1 64h-83.8c-8.5 0-16.6 3.4-22.6 9.4L128 128v223.9h18.3l90.5 81.9c27.4 22.3 67.7 18.1 90-9.3l.2-.2 17.9 15.5c15.9 13 39.4 10.5 52.3-5.4l31.4-38.6 5.4 4.4c13.7 11.1 33.9 9.1 45-4.7l9.5-11.7c11.2-13.8 9.1-33.9-4.6-45.1z"></path>
  </svg>
  <g opacity="100%">
    <text x="994" y="308.5" font-family="Quicksand" font-size="18" fill="#f7ffff" letter-spacing="0" font-weight="600" font-style="normal">Smart Contract-Based Sponsorship Deals</text>
  </g>
  <g opacity="100%">
    <text x="994" y="339" font-family="Quicksand" font-size="14" fill="#f7ffff" letter-spacing="0" font-weight="normal" font-style="normal">For Streamers &amp; Influencers</text>
  </g>
  <g opacity="100%">
    <text x="32" y="430" font-family="Quicksand" font-size="32" fill="#f7ffff" letter-spacing="0" font-weight="600" font-style="normal">📌 Solidity Smart Contract for Decentralized Ads</text>
  </g>
  <g opacity="100%">
    <rect x="32.5" y="452.5" width="1375" height="95" fill="#161211" stroke="#222224" stroke-width="1" rx="2" filter="url(#filter_dshadow_0_0_0_03030314)"></rect>
  </g>
  <g opacity="100%">
    <text x="56" y="494" font-family="Quicksand" font-size="16" fill="#f7ffff" letter-spacing="0" font-weight="normal" font-style="normal">Our decentralized ad network utilizes Solidity smart contracts to ensure transparency and security. Each transaction is recorded on the blockchain, guaranteeing that all parties</text>
    <text x="56" y="518" font-family="Quicksand" font-size="16" fill="#f7ffff" letter-spacing="0" font-weight="normal" font-style="normal">receive their fair share without any middlemen.</text>
  </g>
  <g opacity="100%">
    <rect x="0" y="812" width="1440" height="88" fill="#222224" filter="url(#filter_dshadow_0_0_2_03030314)"></rect>
  </g>
  <g opacity="100%" mask="url(#mask_ycnfmi9gaw)">
    <text x="32" y="859" font-family="Quicksand" font-size="14" fill="#fff" letter-spacing="0" font-weight="normal" font-style="normal">© 2023 Decentralized Ad Network. All rights</text>
    <text x="32" y="879" font-family="Quicksand" font-size="14" fill="#fff" letter-spacing="0" font-weight="normal" font-style="normal">reserved.</text>
    <defs>
      <mask id="mask_ycnfmi9gaw">
        <rect x="32" y="844" width="310" height="20" fill="white"></rect>
      </mask>
    </defs>
  </g>
  <g opacity="100%" mask="url(#mask_pe6wtsbtlq)">
    <text x="1190" y="862" font-family="Quicksand" font-size="16" fill="#fff" letter-spacing="0" font-weight="normal" font-style="normal">Privacy</text>
    <text x="1190" y="886" font-family="Quicksand" font-size="16" fill="#fff" letter-spacing="0" font-weight="normal" font-style="normal">Policy</text>
    <defs>
      <mask id="mask_pe6wtsbtlq">
        <rect x="1190" y="844" width="93" height="24" fill="white"></rect>
      </mask>
    </defs>
  </g>
  <g opacity="100%" mask="url(#mask_he55ogpgl8)">
    <text x="1298" y="862" font-family="Quicksand" font-size="16" fill="#fff" letter-spacing="0" font-weight="normal" font-style="normal">Terms of</text>
    <text x="1298" y="886" font-family="Quicksand" font-size="16" fill="#fff" letter-spacing="0" font-weight="normal" font-style="normal">Service</text>
    <defs>
      <mask id="mask_he55ogpgl8">
        <rect x="1298" y="844" width="110" height="24" fill="white"></rect>
      </mask>
    </defs>
  </g>
  <defs>
    <filter id="filter_dshadow_0_0_2_03030314" color-interpolation-filters="sRGB" filterUnits="userSpaceOnUse">
      <feFlood flood-opacity="0" result="bg-fix"></feFlood>
      <feColorMatrix in="SourceAlpha" type="matrix" values="0 0 0 0 0 0 0 0 0 0 0 0 0 0 0 0 0 0 127 0" result="alpha"></feColorMatrix>
      <feOffset dx="0" dy="2"></feOffset>
      <feGaussianBlur stdDeviation="0"></feGaussianBlur>
      <feComposite in2="alpha" operator="out"></feComposite>
      <feColorMatrix type="matrix" values="0 0 0 0 0.011764705882352941 0 0 0 0 0.011764705882352941 0 0 0 0 0.011764705882352941 0 0 0 0.08 0"></feColorMatrix>
      <feBlend mode="normal" in2="bg-fix" result="bg-fix-filter_dshadow_0_0_2_03030314"></feBlend>
      <feBlend in="SourceGraphic" in2="bg-fix-filter_dshadow_0_0_2_03030314" result="shape"></feBlend>
    </filter>
    <filter id="filter_dshadow_0_0_0_000000639c" color-interpolation-filters="sRGB" filterUnits="userSpaceOnUse">
      <feFlood flood-opacity="0" result="bg-fix"></feFlood>
      <feColorMatrix in="SourceAlpha" type="matrix" values="0 0 0 0 0 0 0 0 0 0 0 0 0 0 0 0 0 0 127 0" result="alpha"></feColorMatrix>
      <feOffset dx="0" dy="0"></feOffset>
      <feGaussianBlur stdDeviation="0"></feGaussianBlur>
      <feComposite in2="alpha" operator="out"></feComposite>
      <feColorMatrix type="matrix" values="0 0 0 0 0 0 0 0 0 0 0 0 0 0 0 0 0 0 100 0"></feColorMatrix>
      <feBlend mode="normal" in2="bg-fix" result="bg-fix-filter_dshadow_0_0_0_000000639c"></feBlend>
      <feBlend in="SourceGraphic" in2="bg-fix-filter_dshadow_0_0_0_000000639c" result="shape"></feBlend>
    </filter>
    <filter id="filter_dshadow_0_0_0_03030314" color-interpolation-filters="sRGB" filterUnits="userSpaceOnUse">
      <feFlood flood-opacity="0" result="bg-fix"></feFlood>
      <feColorMatrix in="SourceAlpha" type="matrix" values="0 0 0 0 0 0 0 0 0 0 0 0 0 0 0 0 0 0 127 0" result="alpha"></feColorMatrix>
      <feOffset dx="0" dy="0"></feOffset>
      <feGaussianBlur stdDeviation="0"></feGaussianBlur>
      <feComposite in2="alpha" operator="out"></feComposite>
      <feColorMatrix type="matrix" values="0 0 0 0 0.011764705882352941 0 0 0 0 0.011764705882352941 0 0 0 0 0.011764705882352941 0 0 0 0.08 0"></feColorMatrix>
      <feBlend mode="normal" in2="bg-fix" result="bg-fix-filter_dshadow_0_0_0_03030314"></feBlend>
      <feBlend in="SourceGraphic" in2="bg-fix-filter_dshadow_0_0_0_03030314" result="shape"></feBlend>
    </filter>
    <style id="google">@import url(https://fonts.googleapis.com/css2?family=Quicksand:ital,wght@0,300;0,400;0,500;0,600;0,700&amp;display=swap);
</style>
    <style id="brand"></style>
  </defs>
</svg>