
<svg xmlns="http://www.w3.org/2000/svg" xmlns:xlink="http://www.w3.org/1999/xlink" viewBox="0 0 1440 900" width="1440" height="900" fill="none">
  <rect width="1440" height="900" fill="#161211"></rect>
  <g opacity="100%">
    <rect x="0" y="0" width="1440" height="68" fill="#222224" filter="url(#filter_dshadow_0_0_2_03030314)"></rect>
  </g>
  <svg xmlns="http://www.w3.org/2000/svg" viewBox="0 0 512 512" width="30" height="30" fill="#f7ffff" x="32" y="19" opacity="100%">
    <path d="M488 64h-8v20c0 6.6-5.4 12-12 12h-40c-6.6 0-12-5.4-12-12V64H96v20c0 6.6-5.4 12-12 12H44c-6.6 0-12-5.4-12-12V64h-8C10.7 64 0 74.7 0 88v336c0 13.3 10.7 24 24 24h8v-20c0-6.6 5.4-12 12-12h40c6.6 0 12 5.4 12 12v20h320v-20c0-6.6 5.4-12 12-12h40c6.6 0 12 5.4 12 12v20h8c13.3 0 24-10.7 24-24V88c0-13.3-10.7-24-24-24zM96 372c0 6.6-5.4 12-12 12H44c-6.6 0-12-5.4-12-12v-40c0-6.6 5.4-12 12-12h40c6.6 0 12 5.4 12 12v40zm0-96c0 6.6-5.4 12-12 12H44c-6.6 0-12-5.4-12-12v-40c0-6.6 5.4-12 12-12h40c6.6 0 12 5.4 12 12v40zm0-96c0 6.6-5.4 12-12 12H44c-6.6 0-12-5.4-12-12v-40c0-6.6 5.4-12 12-12h40c6.6 0 12 5.4 12 12v40zm272 208c0 6.6-5.4 12-12 12H156c-6.6 0-12-5.4-12-12v-96c0-6.6 5.4-12 12-12h200c6.6 0 12 5.4 12 12v96zm0-168c0 6.6-5.4 12-12 12H156c-6.6 0-12-5.4-12-12v-96c0-6.6 5.4-12 12-12h200c6.6 0 12 5.4 12 12v96zm112 152c0 6.6-5.4 12-12 12h-40c-6.6 0-12-5.4-12-12v-40c0-6.6 5.4-12 12-12h40c6.6 0 12 5.4 12 12v40zm0-96c0 6.6-5.4 12-12 12h-40c-6.6 0-12-5.4-12-12v-40c0-6.6 5.4-12 12-12h40c6.6 0 12 5.4 12 12v40zm0-96c0 6.6-5.4 12-12 12h-40c-6.6 0-12-5.4-12-12v-40c0-6.6 5.4-12 12-12h40c6.6 0 12 5.4 12 12v40z"></path>
  </svg>
  <g opacity="100%" mask="url(#mask_kmfqxxdn69)">
    <text x="74" y="43" font-family="Quicksand" font-size="24" fill="#f7ffff" letter-spacing="0" font-weight="700" font-style="normal">Web3</text>
    <text x="74" y="75" font-family="Quicksand" font-size="24" fill="#f7ffff" letter-spacing="0" font-weight="700" font-style="normal">Cinema</text>
    <defs>
      <mask id="mask_kmfqxxdn69">
        <rect x="74" y="18" width="144" height="32" fill="white"></rect>
      </mask>
    </defs>
  </g>
  <g opacity="100%" mask="url(#mask_4dxstrhwn)">
    <text x="1075" y="42.5" font-family="Quicksand" font-size="18" fill="#f7ffff" letter-spacing="0" font-weight="normal" font-style="normal">Hom</text>
    <text x="1075" y="70.5" font-family="Quicksand" font-size="18" fill="#f7ffff" letter-spacing="0" font-weight="normal" font-style="normal">e</text>
    <defs>
      <mask id="mask_4dxstrhwn">
        <rect x="1075" y="22" width="46" height="23" fill="white"></rect>
      </mask>
    </defs>
  </g>
  <g opacity="100%" mask="url(#mask_7ygwk6aduh)">
    <text x="1144" y="42.5" font-family="Quicksand" font-size="18" fill="#f7ffff" letter-spacing="0" font-weight="normal" font-style="normal">Feature</text>
    <text x="1144" y="70.5" font-family="Quicksand" font-size="18" fill="#f7ffff" letter-spacing="0" font-weight="normal" font-style="normal">s</text>
    <defs>
      <mask id="mask_7ygwk6aduh">
        <rect x="1144" y="22" width="65" height="23" fill="white"></rect>
      </mask>
    </defs>
  </g>
  <g opacity="100%" mask="url(#mask_wdik89dv0hh)">
    <text x="1232" y="42.5" font-family="Quicksand" font-size="18" fill="#f7ffff" letter-spacing="0" font-weight="normal" font-style="normal">Marketpla</text>
    <text x="1232" y="70.5" font-family="Quicksand" font-size="18" fill="#f7ffff" letter-spacing="0" font-weight="normal" font-style="normal">ce</text>
    <defs>
      <mask id="mask_wdik89dv0hh">
        <rect x="1232" y="22" width="93" height="23" fill="white"></rect>
      </mask>
    </defs>
  </g>
  <g opacity="100%" mask="url(#mask_ci3s29foga)">
    <text x="1349" y="42.5" font-family="Quicksand" font-size="18" fill="#f7ffff" letter-spacing="0" font-weight="normal" font-style="normal">Conta</text>
    <text x="1349" y="70.5" font-family="Quicksand" font-size="18" fill="#f7ffff" letter-spacing="0" font-weight="normal" font-style="normal">ct</text>
    <defs>
      <mask id="mask_ci3s29foga">
        <rect x="1349" y="22" width="59" height="23" fill="white"></rect>
      </mask>
    </defs>
  </g>
  <g opacity="100%">
    <rect x="32.5" y="92.5" width="442" height="327" fill="#161211" stroke="#222224" stroke-width="1" rx="2" filter="url(#filter_dshadow_0_0_0_03030314)"></rect>
  </g>
  <svg xmlns="http://www.w3.org/2000/svg" viewBox="0 0 576 512" width="40" height="40" fill="#f7ffff" x="233.5" y="116" opacity="100%">
    <path d="M0 432c0 26.5 21.5 48 48 48h480c26.5 0 48-21.5 48-48V256H0v176zm192-68c0-6.6 5.4-12 12-12h136c6.6 0 12 5.4 12 12v40c0 6.6-5.4 12-12 12H204c-6.6 0-12-5.4-12-12v-40zm-128 0c0-6.6 5.4-12 12-12h72c6.6 0 12 5.4 12 12v40c0 6.6-5.4 12-12 12H76c-6.6 0-12-5.4-12-12v-40zM576 80v48H0V80c0-26.5 21.5-48 48-48h480c26.5 0 48 21.5 48 48z"></path>
  </svg>
  <g opacity="100%" mask="url(#mask_4b6r641eko)">
    <text x="91" y="193.5" font-family="Quicksand" font-size="20" fill="#f7ffff" letter-spacing="0" font-weight="600" font-style="normal">Subscription &amp; Payment</text>
    <text x="91" y="221.5" font-family="Quicksand" font-size="20" fill="#f7ffff" letter-spacing="0" font-weight="600" font-style="normal">Management</text>
    <defs>
      <mask id="mask_4b6r641eko">
        <rect x="91" y="172" width="323" height="28" fill="white"></rect>
      </mask>
    </defs>
  </g>
  <g opacity="100%" mask="url(#mask_73xeyrcia9)">
    <text x="92" y="223" font-family="Quicksand" font-size="14" fill="#f7ffff" letter-spacing="0" font-weight="normal" font-style="normal">Manage payments via Stripe, PayPal, and Web3</text>
    <text x="92" y="243" font-family="Quicksand" font-size="14" fill="#f7ffff" letter-spacing="0" font-weight="normal" font-style="normal">wallets.</text>
    <defs>
      <mask id="mask_73xeyrcia9">
        <rect x="92" y="208" width="321" height="20" fill="white"></rect>
      </mask>
    </defs>
  </g>
  <g opacity="100%">
    <rect filter="url(#filter_dshadow_0_0_0_03030314)" x="200" y="244" width="107" height="40" fill="#9663dd" rx="2"></rect>
    <text x="210.5" y="270" font-family="Quicksand" font-size="16" fill="#0e0e0c" letter-spacing="0" font-weight="500" font-style="normal">
      <tspan>Learn More</tspan>
    </text>
  </g>
  <g opacity="100%">
    <rect x="498.5" y="92.5" width="442" height="327" fill="#161211" stroke="#222224" stroke-width="1" rx="2" filter="url(#filter_dshadow_0_0_0_03030314)"></rect>
  </g>
  <svg xmlns="http://www.w3.org/2000/svg" viewBox="0 0 512 512" width="36" height="36" fill="#f7ffff" x="701" y="118" opacity="100%">
    <path d="M32 448c0 17.7 14.3 32 32 32h160V320H32v128zm256 32h160c17.7 0 32-14.3 32-32V320H288v160zm192-320h-42.1c6.2-12.1 10.1-25.5 10.1-40 0-48.5-39.5-88-88-88-41.6 0-68.5 21.3-103 68.3-34.5-47-61.4-68.3-103-68.3-48.5 0-88 39.5-88 88 0 14.5 3.8 27.9 10.1 40H32c-17.7 0-32 14.3-32 32v80c0 8.8 7.2 16 16 16h480c8.8 0 16-7.2 16-16v-80c0-17.7-14.3-32-32-32zm-326.1 0c-22.1 0-40-17.9-40-40s17.9-40 40-40c19.9 0 34.6 3.3 86.1 80h-86.1zm206.1 0h-86.1c51.4-76.5 65.7-80 86.1-80 22.1 0 40 17.9 40 40s-17.9 40-40 40z"></path>
  </svg>
  <g opacity="100%" mask="url(#mask_6kfyplcq1e)">
    <text x="604" y="193.5" font-family="Quicksand" font-size="20" fill="#f7ffff" letter-spacing="0" font-weight="600" font-style="normal">Token-Based Digital</text>
    <text x="604" y="221.5" font-family="Quicksand" font-size="20" fill="#f7ffff" letter-spacing="0" font-weight="600" font-style="normal">Gifting</text>
    <defs>
      <mask id="mask_6kfyplcq1e">
        <rect x="604" y="172" width="232" height="28" fill="white"></rect>
      </mask>
    </defs>
  </g>
  <g opacity="100%">
    <text x="522" y="223" font-family="Quicksand" font-size="14" fill="#f7ffff" letter-spacing="0" font-weight="normal" font-style="normal">Enhance fan engagement with tokenized gifts and exclusive</text>
    <text x="522" y="243" font-family="Quicksand" font-size="14" fill="#f7ffff" letter-spacing="0" font-weight="normal" font-style="normal">content.</text>
  </g>
  <g opacity="100%">
    <rect filter="url(#filter_dshadow_0_0_0_03030314)" x="662" y="264" width="116" height="40" fill="#9663dd" rx="2"></rect>
    <text x="673" y="290" font-family="Quicksand" font-size="16" fill="#0e0e0c" letter-spacing="0" font-weight="500" font-style="normal">
      <tspan>Explore Gifts</tspan>
    </text>
  </g>
  <g opacity="100%">
    <rect x="965.5" y="92.5" width="442" height="327" fill="#161211" stroke="#222224" stroke-width="1" rx="2" filter="url(#filter_dshadow_0_0_0_03030314)"></rect>
  </g>
  <svg xmlns="http://www.w3.org/2000/svg" viewBox="0 0 512 512" width="36" height="36" fill="#f7ffff" x="1168" y="118" opacity="100%">
    <path d="M188.8 345.9l27.4-27.4c2.6.7 5 1.6 7.8 1.6 17.7 0 32-14.3 32-32s-14.3-32-32-32-32 14.3-32 32c0 2.8.9 5.2 1.6 7.8l-27.4 27.4L49.4 206.5c-7.3-7.3-20.1-6.1-25 3-41.8 77.8-29.9 176.7 35.7 242.3 65.6 65.6 164.6 77.5 242.3 35.7 9.2-4.9 10.4-17.7 3-25L188.8 345.9zM209 0c-9.2-.5-17 6.8-17 16v31.6c0 8.5 6.6 15.5 15 15.9 129.4 7 233.4 112 240.9 241.5.5 8.4 7.5 15 15.9 15h32.1c9.2 0 16.5-7.8 16-17C503.4 139.8 372.2 8.6 209 0zm.3 96c-9.3-.7-17.3 6.7-17.3 16.1v32.1c0 8.4 6.5 15.3 14.8 15.9 76.8 6.3 138 68.2 144.9 145.2.8 8.3 7.6 14.7 15.9 14.7h32.2c9.3 0 16.8-8 16.1-17.3-8.4-110.1-96.5-198.2-206.6-206.7z"></path>
  </svg>
  <g opacity="100%" mask="url(#mask_dp85axeela)">
    <text x="1125" y="193.5" font-family="Quicksand" font-size="20" fill="#f7ffff" letter-spacing="0" font-weight="600" font-style="normal">Watch-to-</text>
    <text x="1125" y="221.5" font-family="Quicksand" font-size="20" fill="#f7ffff" letter-spacing="0" font-weight="600" font-style="normal">Earn</text>
    <defs>
      <mask id="mask_dp85axeela">
        <rect x="1125" y="172" width="124" height="28" fill="white"></rect>
      </mask>
    </defs>
  </g>
  <g opacity="100%" mask="url(#mask_r3fsxhgtde)">
    <text x="1014" y="223" font-family="Quicksand" font-size="14" fill="#f7ffff" letter-spacing="0" font-weight="normal" font-style="normal">Earn crypto rewards for your engagement with BST</text>
    <text x="1014" y="243" font-family="Quicksand" font-size="14" fill="#f7ffff" letter-spacing="0" font-weight="normal" font-style="normal">Tokens.</text>
    <defs>
      <mask id="mask_r3fsxhgtde">
        <rect x="1014" y="208" width="344" height="20" fill="white"></rect>
      </mask>
    </defs>
  </g>
  <g opacity="100%">
    <rect filter="url(#filter_dshadow_0_0_0_03030314)" x="1121" y="244" width="130" height="40" fill="#9663dd" rx="2"></rect>
    <text x="1129.5" y="270" font-family="Quicksand" font-size="16" fill="#0e0e0c" letter-spacing="0" font-weight="500" font-style="normal">
      <tspan>Start Watching</tspan>
    </text>
  </g>
  <g opacity="100%">
    <rect x="32.5" y="444.5" width="442" height="307" fill="#161211" stroke="#222224" stroke-width="1" rx="2" filter="url(#filter_dshadow_0_0_0_03030314)"></rect>
  </g>
  <svg xmlns="http://www.w3.org/2000/svg" viewBox="0 0 640 512" width="40" height="40" fill="#f7ffff" x="232.5" y="468" opacity="100%">
    <path d="M206.86 245.15c-35.88 10.45-59.95 41.2-57.53 74.1 11.4-12.72 28.81-23.7 49.9-30.92l7.63-43.18zM95.81 295L64.08 115.49c-.29-1.62.28-2.62.24-2.65 57.76-32.06 123.12-49.01 189.01-49.01 1.61 0 3.23.17 4.85.19 13.95-13.47 31.73-22.83 51.59-26 18.89-3.02 38.05-4.55 57.18-5.32-9.99-13.95-24.48-24.23-41.77-27C301.27 1.89 277.24 0 253.32 0 176.66 0 101.02 19.42 33.2 57.06 9.03 70.48-3.92 98.48 1.05 126.58l31.73 179.51c14.23 80.52 136.33 142.08 204.45 142.08 3.59 0 6.75-.46 10.01-.8-13.52-17.08-28.94-40.48-39.5-67.58-47.61-12.98-106.06-51.62-111.93-84.79zm97.55-137.46c-.73-4.12-2.23-7.87-4.07-11.4-8.25 8.91-20.67 15.75-35.32 18.32-14.65 2.58-28.67.4-39.48-5.17-.52 3.94-.64 7.98.09 12.1 3.84 21.7 24.58 36.19 46.34 32.37 21.75-3.82 36.28-24.52 32.44-46.22zM606.8 120.9c-88.98-49.38-191.43-67.41-291.98-51.35-27.31 4.36-49.08 26.26-54.04 54.36l-31.73 179.51c-15.39 87.05 95.28 196.27 158.31 207.35 63.03 11.09 204.47-53.79 219.86-140.84l31.73-179.51c4.97-28.11-7.98-56.11-32.15-69.52zm-273.24 96.8c3.84-21.7 24.58-36.19 46.34-32.36 21.76 3.83 36.28 24.52 32.45 46.22-.73 4.12-2.23 7.87-4.07 11.4-8.25-8.91-20.67-15.75-35.32-18.32-14.65-2.58-28.67-.4-39.48 5.17-.53-3.95-.65-7.99.08-12.11zm70.47 198.76c-55.68-9.79-93.52-59.27-89.04-112.9 20.6 25.54 56.21 46.17 99.49 53.78 43.28 7.61 83.82.37 111.93-16.6-14.18 51.94-66.71 85.51-122.38 75.72zm130.3-151.34c-8.25-8.91-20.68-15.75-35.33-18.32-14.65-2.58-28.67-.4-39.48 5.17-.52-3.94-.64-7.98.09-12.1 3.84-21.7 24.58-36.19 46.34-32.37 21.75 3.83 36.28 24.52 32.45 46.22-.73 4.13-2.23 7.88-4.07 11.4z"></path>
  </svg>
  <g opacity="100%" mask="url(#mask_isow9f6jcq)">
    <text x="153" y="545.5" font-family="Quicksand" font-size="20" fill="#f7ffff" letter-spacing="0" font-weight="600" font-style="normal">Movie NFT</text>
    <text x="153" y="573.5" font-family="Quicksand" font-size="20" fill="#f7ffff" letter-spacing="0" font-weight="600" font-style="normal">Marketplace</text>
    <defs>
      <mask id="mask_isow9f6jcq">
        <rect x="153" y="524" width="200" height="28" fill="white"></rect>
      </mask>
    </defs>
  </g>
  <g opacity="100%" mask="url(#mask_giy1huolwd)">
    <text x="139" y="575" font-family="Quicksand" font-size="14" fill="#f7ffff" letter-spacing="0" font-weight="normal" font-style="normal">Buy, sell, and trade exclusive film</text>
    <text x="139" y="595" font-family="Quicksand" font-size="14" fill="#f7ffff" letter-spacing="0" font-weight="normal" font-style="normal">NFTs.</text>
    <defs>
      <mask id="mask_giy1huolwd">
        <rect x="139" y="560" width="227" height="20" fill="white"></rect>
      </mask>
    </defs>
  </g>
  <g opacity="100%">
    <rect filter="url(#filter_dshadow_0_0_0_03030314)" x="180" y="596" width="146" height="40" fill="#9663dd" rx="2"></rect>
    <text x="188.5" y="622" font-family="Quicksand" font-size="16" fill="#0e0e0c" letter-spacing="0" font-weight="500" font-style="normal">
      <tspan>Visit Marketplace</tspan>
    </text>
  </g>
  <g opacity="100%">
    <rect x="498.5" y="444.5" width="442" height="307" fill="#161211" stroke="#222224" stroke-width="1" rx="2" filter="url(#filter_dshadow_0_0_0_03030314)"></rect>
  </g>
  <svg xmlns="http://www.w3.org/2000/svg" viewBox="0 0 616 512" width="40" height="40" fill="#f7ffff" x="700" y="468" opacity="100%">
    <path d="M602 118.6L537.1 15C531.3 5.7 521 0 510 0H106C95 0 84.7 5.7 78.9 15L14 118.6c-33.5 53.5-3.8 127.9 58.8 136.4 4.5.6 9.1.9 13.7.9 29.6 0 55.8-13 73.8-33.1 18 20.1 44.3 33.1 73.8 33.1 29.6 0 55.8-13 73.8-33.1 18 20.1 44.3 33.1 73.8 33.1 29.6 0 55.8-13 73.8-33.1 18.1 20.1 44.3 33.1 73.8 33.1 4.7 0 9.2-.3 13.7-.9 62.8-8.4 92.6-82.8 59-136.4zM529.5 288c-10 0-19.9-1.5-29.5-3.8V384H116v-99.8c-9.6 2.2-19.5 3.8-29.5 3.8-6 0-12.1-.4-18-1.2-5.6-.8-11.1-2.1-16.4-3.6V480c0 17.7 14.3 32 32 32h448c17.7 0 32-14.3 32-32V283.2c-5.4 1.6-10.8 2.9-16.4 3.6-6.1.8-12.1 1.2-18.2 1.2z"></path>
  </svg>
  <g opacity="100%" mask="url(#mask_dx27six0fb)">
    <text x="643" y="545.5" font-family="Quicksand" font-size="20" fill="#f7ffff" letter-spacing="0" font-weight="600" font-style="normal">Web3 Movie</text>
    <text x="643" y="573.5" font-family="Quicksand" font-size="20" fill="#f7ffff" letter-spacing="0" font-weight="600" font-style="normal">Store</text>
    <defs>
      <mask id="mask_dx27six0fb">
        <rect x="643" y="524" width="153" height="28" fill="white"></rect>
      </mask>
    </defs>
  </g>
  <g opacity="100%" mask="url(#mask_3vj6pg9dar)">
    <text x="578" y="575" font-family="Quicksand" font-size="14" fill="#f7ffff" letter-spacing="0" font-weight="normal" font-style="normal">Tokenized movie access with lifetime</text>
    <text x="578" y="595" font-family="Quicksand" font-size="14" fill="#f7ffff" letter-spacing="0" font-weight="normal" font-style="normal">ownership.</text>
    <defs>
      <mask id="mask_3vj6pg9dar">
        <rect x="578" y="560" width="283" height="20" fill="white"></rect>
      </mask>
    </defs>
  </g>
  <g opacity="100%">
    <rect filter="url(#filter_dshadow_0_0_0_03030314)" x="669" y="596" width="101" height="40" fill="#9663dd" rx="2"></rect>
    <text x="681.5" y="622" font-family="Quicksand" font-size="16" fill="#0e0e0c" letter-spacing="0" font-weight="500" font-style="normal">
      <tspan>Shop Now</tspan>
    </text>
  </g>
  <g opacity="100%">
    <rect x="965.5" y="444.5" width="442" height="307" fill="#161211" stroke="#222224" stroke-width="1" rx="2" filter="url(#filter_dshadow_0_0_0_03030314)"></rect>
  </g>
  <svg xmlns="http://www.w3.org/2000/svg" viewBox="0 0 576 512" width="40" height="40" fill="#f7ffff" x="1166.5" y="468" opacity="100%">
    <path d="M271.06,144.3l54.27,14.3a8.59,8.59,0,0,1,6.63,8.1c0,4.6-4.09,8.4-9.12,8.4h-35.6a30,30,0,0,1-11.19-2.2c-5.24-2.2-11.28-1.7-15.3,2l-19,17.5a11.68,11.68,0,0,0-2.25,2.66,11.42,11.42,0,0,0,3.88,15.74,83.77,83.77,0,0,0,34.51,11.5V240c0,8.8,7.83,16,17.37,16h17.37c9.55,0,17.38-7.2,17.38-16V222.4c32.93-3.6,57.84-31,53.5-63-3.15-23-22.46-41.3-46.56-47.7L282.68,97.4a8.59,8.59,0,0,1-6.63-8.1c0-4.6,4.09-8.4,9.12-8.4h35.6A30,30,0,0,1,332,83.1c5.23,2.2,11.28,1.7,15.3-2l19-17.5A11.31,11.31,0,0,0,368.47,61a11.43,11.43,0,0,0-3.84-15.78,83.82,83.82,0,0,0-34.52-11.5V16c0-8.8-7.82-16-17.37-16H295.37C285.82,0,278,7.2,278,16V33.6c-32.89,3.6-57.85,31-53.51,63C227.63,119.6,247,137.9,271.06,144.3ZM565.27,328.1c-11.8-10.7-30.2-10-42.6,0L430.27,402a63.64,63.64,0,0,1-40,14H272a16,16,0,0,1,0-32h78.29c15.9,0,30.71-10.9,33.25-26.6a31.2,31.2,0,0,0,.46-5.46A32,32,0,0,0,352,320H192a117.66,117.66,0,0,0-74.1,26.29L71.4,384H16A16,16,0,0,0,0,400v96a16,16,0,0,0,16,16H372.77a64,64,0,0,0,40-14L564,377a32,32,0,0,0,1.28-48.9Z"></path>
  </svg>
  <g opacity="100%" mask="url(#mask_to4j6zh6i)">
    <text x="1070" y="545.5" font-family="Quicksand" font-size="20" fill="#f7ffff" letter-spacing="0" font-weight="600" font-style="normal">Revenue Sharing</text>
    <text x="1070" y="573.5" font-family="Quicksand" font-size="20" fill="#f7ffff" letter-spacing="0" font-weight="600" font-style="normal">Contracts</text>
    <defs>
      <mask id="mask_to4j6zh6i">
        <rect x="1070" y="524" width="232" height="28" fill="white"></rect>
      </mask>
    </defs>
  </g>
  <g opacity="100%" mask="url(#mask_cdsdjeek7)">
    <text x="1035" y="575" font-family="Quicksand" font-size="14" fill="#f7ffff" letter-spacing="0" font-weight="normal" font-style="normal">Automated payouts for creators via smart</text>
    <text x="1035" y="595" font-family="Quicksand" font-size="14" fill="#f7ffff" letter-spacing="0" font-weight="normal" font-style="normal">contracts.</text>
    <defs>
      <mask id="mask_cdsdjeek7">
        <rect x="1035" y="560" width="302" height="20" fill="white"></rect>
      </mask>
    </defs>
  </g>
  <g opacity="100%">
    <rect filter="url(#filter_dshadow_0_0_0_03030314)" x="1133" y="596" width="107" height="40" fill="#9663dd" rx="2"></rect>
    <text x="1143.5" y="622" font-family="Quicksand" font-size="16" fill="#0e0e0c" letter-spacing="0" font-weight="500" font-style="normal">
      <tspan>Learn More</tspan>
    </text>
  </g>
  <g opacity="100%">
    <rect x="0" y="776" width="1440" height="124" fill="#222224" filter="url(#filter_dshadow_0_0_2_03030314)"></rect>
  </g>
  <g opacity="100%">
    <text x="32" y="820.5" font-family="Quicksand" font-size="18" fill="#fff" letter-spacing="0" font-weight="600" font-style="normal">About Us</text>
  </g>
  <g opacity="100%" mask="url(#mask_967xh44in9)">
    <text x="32" y="851" font-family="Quicksand" font-size="14" fill="#fff" letter-spacing="0" font-weight="normal" font-style="normal">Web3 Cinema is revolutionizing the entertainment industry with blockchain</text>
    <text x="32" y="871" font-family="Quicksand" font-size="14" fill="#fff" letter-spacing="0" font-weight="normal" font-style="normal">technology.</text>
    <defs>
      <mask id="mask_967xh44in9">
        <rect x="32" y="836" width="511" height="20" fill="white"></rect>
      </mask>
    </defs>
  </g>
  <g opacity="100%">
    <text x="834" y="820.5" font-family="Quicksand" font-size="18" fill="#fff" letter-spacing="0" font-weight="600" font-style="normal">Contact</text>
  </g>
  <g opacity="100%" mask="url(#mask_skva3qohh)">
    <text x="834" y="851" font-family="Quicksand" font-size="14" fill="#fff" letter-spacing="0" font-weight="normal" font-style="normal">Email:</text>
    <text x="834" y="871" font-family="Quicksand" font-size="14" fill="#fff" letter-spacing="0" font-weight="normal" font-style="normal">support@web3cinema.com</text>
    <defs>
      <mask id="mask_skva3qohh">
        <rect x="834" y="836" width="201" height="20" fill="white"></rect>
      </mask>
    </defs>
  </g>
  <g opacity="100%">
    <text x="834" y="871" font-family="Quicksand" font-size="14" fill="#fff" letter-spacing="0" font-weight="normal" font-style="normal">Phone: (123) 456-7890</text>
  </g>
  <g opacity="100%">
    <text x="1325" y="820.5" font-family="Quicksand" font-size="18" fill="#fff" letter-spacing="0" font-weight="600" font-style="normal">Follow Us</text>
  </g>
  <svg xmlns="http://www.w3.org/2000/svg" viewBox="0 0 320 512" width="13" height="13" fill="#fff" x="1325" y="843.5" opacity="100%">
    <path d="M279.14 288l14.22-92.66h-88.91v-60.13c0-25.35 12.42-50.06 52.24-50.06h40.42V6.26S260.43 0 225.36 0c-73.22 0-121.08 44.38-121.08 124.72v70.62H22.89V288h81.39v224h100.17V288z"></path>
  </svg>
  <svg xmlns="http://www.w3.org/2000/svg" viewBox="0 0 512 512" width="20" height="20" fill="#fff" x="1354" y="840" opacity="100%">
    <path d="M459.37 151.716c.325 4.548.325 9.097.325 13.645 0 138.72-105.583 298.558-298.558 298.558-59.452 0-114.68-17.219-161.137-47.106 8.447.974 16.568 1.299 25.34 1.299 49.055 0 94.213-16.568 130.274-44.832-46.132-.975-84.792-31.188-98.112-72.772 6.498.974 12.995 1.624 19.818 1.624 9.421 0 18.843-1.3 27.614-3.573-48.081-9.747-84.143-51.98-84.143-102.985v-1.299c13.969 7.797 30.214 12.67 47.431 13.319-28.264-18.843-46.781-51.005-46.781-87.391 0-19.492 5.197-37.36 14.294-52.954 51.655 63.675 129.3 105.258 216.365 109.807-1.624-7.797-2.599-15.918-2.599-24.04 0-57.828 46.782-104.934 104.934-104.934 30.213 0 57.502 12.67 76.67 33.137 23.715-4.548 46.456-13.32 66.599-25.34-7.798 24.366-24.366 44.833-46.132 57.827 21.117-2.273 41.584-8.122 60.426-16.243-14.292 20.791-32.161 39.308-52.628 54.253z"></path>
  </svg>
  <svg xmlns="http://www.w3.org/2000/svg" viewBox="0 0 448 512" width="18" height="18" fill="#fff" x="1390" y="841" opacity="100%">
    <path d="M224.1 141c-63.6 0-114.9 51.3-114.9 114.9s51.3 114.9 114.9 114.9S339 319.5 339 255.9 287.7 141 224.1 141zm0 189.6c-41.1 0-74.7-33.5-74.7-74.7s33.5-74.7 74.7-74.7 74.7 33.5 74.7 74.7-33.6 74.7-74.7 74.7zm146.4-194.3c0 14.9-12 26.8-26.8 26.8-14.9 0-26.8-12-26.8-26.8s12-26.8 26.8-26.8 26.8 12 26.8 26.8zm76.1 27.2c-1.7-35.9-9.9-67.7-36.2-93.9-26.2-26.2-58-34.4-93.9-36.2-37-2.1-147.9-2.1-184.9 0-35.8 1.7-67.6 9.9-93.9 36.1s-34.4 58-36.2 93.9c-2.1 37-2.1 147.9 0 184.9 1.7 35.9 9.9 67.7 36.2 93.9s58 34.4 93.9 36.2c37 2.1 147.9 2.1 184.9 0 35.9-1.7 67.7-9.9 93.9-36.2 26.2-26.2 34.4-58 36.2-93.9 2.1-37 2.1-147.8 0-184.8zM398.8 388c-7.8 19.6-22.9 34.7-42.6 42.6-29.5 11.7-99.5 9-132.1 9s-102.7 2.6-132.1-9c-19.6-7.8-34.7-22.9-42.6-42.6-11.7-29.5-9-99.5-9-132.1s-2.6-102.7 9-132.1c7.8-19.6 22.9-34.7 42.6-42.6 29.5-11.7 99.5-9 132.1-9s102.7-2.6 132.1 9c19.6 7.8 34.7 22.9 42.6 42.6 11.7 29.5 9 99.5 9 132.1s2.7 102.7-9 132.1z"></path>
  </svg>
  <defs>
    <filter id="filter_dshadow_0_0_2_03030314" color-interpolation-filters="sRGB" filterUnits="userSpaceOnUse">
      <feFlood flood-opacity="0" result="bg-fix"></feFlood>
      <feColorMatrix in="SourceAlpha" type="matrix" values="0 0 0 0 0 0 0 0 0 0 0 0 0 0 0 0 0 0 127 0" result="alpha"></feColorMatrix>
      <feOffset dx="0" dy="2"></feOffset>
      <feGaussianBlur stdDeviation="0"></feGaussianBlur>
      <feComposite in2="alpha" operator="out"></feComposite>
      <feColorMatrix type="matrix" values="0 0 0 0 0.011764705882352941 0 0 0 0 0.011764705882352941 0 0 0 0 0.011764705882352941 0 0 0 0.08 0"></feColorMatrix>
      <feBlend mode="normal" in2="bg-fix" result="bg-fix-filter_dshadow_0_0_2_03030314"></feBlend>
      <feBlend in="SourceGraphic" in2="bg-fix-filter_dshadow_0_0_2_03030314" result="shape"></feBlend>
    </filter>
    <filter id="filter_dshadow_0_0_0_000000639c" color-interpolation-filters="sRGB" filterUnits="userSpaceOnUse">
      <feFlood flood-opacity="0" result="bg-fix"></feFlood>
      <feColorMatrix in="SourceAlpha" type="matrix" values="0 0 0 0 0 0 0 0 0 0 0 0 0 0 0 0 0 0 127 0" result="alpha"></feColorMatrix>
      <feOffset dx="0" dy="0"></feOffset>
      <feGaussianBlur stdDeviation="0"></feGaussianBlur>
      <feComposite in2="alpha" operator="out"></feComposite>
      <feColorMatrix type="matrix" values="0 0 0 0 0 0 0 0 0 0 0 0 0 0 0 0 0 0 100 0"></feColorMatrix>
      <feBlend mode="normal" in2="bg-fix" result="bg-fix-filter_dshadow_0_0_0_000000639c"></feBlend>
      <feBlend in="SourceGraphic" in2="bg-fix-filter_dshadow_0_0_0_000000639c" result="shape"></feBlend>
    </filter>
    <filter id="filter_dshadow_0_0_0_03030314" color-interpolation-filters="sRGB" filterUnits="userSpaceOnUse">
      <feFlood flood-opacity="0" result="bg-fix"></feFlood>
      <feColorMatrix in="SourceAlpha" type="matrix" values="0 0 0 0 0 0 0 0 0 0 0 0 0 0 0 0 0 0 127 0" result="alpha"></feColorMatrix>
      <feOffset dx="0" dy="0"></feOffset>
      <feGaussianBlur stdDeviation="0"></feGaussianBlur>
      <feComposite in2="alpha" operator="out"></feComposite>
      <feColorMatrix type="matrix" values="0 0 0 0 0.011764705882352941 0 0 0 0 0.011764705882352941 0 0 0 0 0.011764705882352941 0 0 0 0.08 0"></feColorMatrix>
      <feBlend mode="normal" in2="bg-fix" result="bg-fix-filter_dshadow_0_0_0_03030314"></feBlend>
      <feBlend in="SourceGraphic" in2="bg-fix-filter_dshadow_0_0_0_03030314" result="shape"></feBlend>
    </filter>
    <style id="google">@import url(https://fonts.googleapis.com/css2?family=Quicksand:ital,wght@0,300;0,400;0,500;0,600;0,700&amp;display=swap);
</style>
    <style id="brand"></style>
  </defs>
</svg>