
<svg xmlns="http://www.w3.org/2000/svg" xmlns:xlink="http://www.w3.org/1999/xlink" viewBox="0 0 1440 900" width="1440" height="900" fill="none">
  <rect width="1440" height="900" fill="#161211"></rect>
  <g opacity="100%">
    <rect x="0" y="0" width="1440" height="64" fill="#222224" filter="url(#filter_dshadow_0_0_2_03030314)"></rect>
  </g>
  <svg xmlns="http://www.w3.org/2000/svg" viewBox="0 0 512 512" width="24" height="24" fill="#f7ffff" x="16" y="20" opacity="100%">
    <path d="M488 64h-8v20c0 6.6-5.4 12-12 12h-40c-6.6 0-12-5.4-12-12V64H96v20c0 6.6-5.4 12-12 12H44c-6.6 0-12-5.4-12-12V64h-8C10.7 64 0 74.7 0 88v336c0 13.3 10.7 24 24 24h8v-20c0-6.6 5.4-12 12-12h40c6.6 0 12 5.4 12 12v20h320v-20c0-6.6 5.4-12 12-12h40c6.6 0 12 5.4 12 12v20h8c13.3 0 24-10.7 24-24V88c0-13.3-10.7-24-24-24zM96 372c0 6.6-5.4 12-12 12H44c-6.6 0-12-5.4-12-12v-40c0-6.6 5.4-12 12-12h40c6.6 0 12 5.4 12 12v40zm0-96c0 6.6-5.4 12-12 12H44c-6.6 0-12-5.4-12-12v-40c0-6.6 5.4-12 12-12h40c6.6 0 12 5.4 12 12v40zm0-96c0 6.6-5.4 12-12 12H44c-6.6 0-12-5.4-12-12v-40c0-6.6 5.4-12 12-12h40c6.6 0 12 5.4 12 12v40zm272 208c0 6.6-5.4 12-12 12H156c-6.6 0-12-5.4-12-12v-96c0-6.6 5.4-12 12-12h200c6.6 0 12 5.4 12 12v96zm0-168c0 6.6-5.4 12-12 12H156c-6.6 0-12-5.4-12-12v-96c0-6.6 5.4-12 12-12h200c6.6 0 12 5.4 12 12v96zm112 152c0 6.6-5.4 12-12 12h-40c-6.6 0-12-5.4-12-12v-40c0-6.6 5.4-12 12-12h40c6.6 0 12 5.4 12 12v40zm0-96c0 6.6-5.4 12-12 12h-40c-6.6 0-12-5.4-12-12v-40c0-6.6 5.4-12 12-12h40c6.6 0 12 5.4 12 12v40zm0-96c0 6.6-5.4 12-12 12h-40c-6.6 0-12-5.4-12-12v-40c0-6.6 5.4-12 12-12h40c6.6 0 12 5.4 12 12v40z"></path>
  </svg>
  <g opacity="100%" mask="url(#mask_cz1dolzu3m)">
    <text x="48" y="39.5" font-family="Quicksand" font-size="20" fill="#f7ffff" letter-spacing="0" font-weight="normal" font-style="normal">BigScreen</text>
    <text x="48" y="67.5" font-family="Quicksand" font-size="20" fill="#f7ffff" letter-spacing="0" font-weight="normal" font-style="normal">Rewards</text>
    <defs>
      <mask id="mask_cz1dolzu3m">
        <rect x="48" y="18" width="152" height="28" fill="white"></rect>
      </mask>
    </defs>
  </g>
  <g opacity="100%" mask="url(#mask_zy4qjv6yr8)">
    <text x="1023" y="38" font-family="Quicksand" font-size="16" fill="#f7ffff" letter-spacing="0" font-weight="normal" font-style="normal">Hom</text>
    <text x="1023" y="62" font-family="Quicksand" font-size="16" fill="#f7ffff" letter-spacing="0" font-weight="normal" font-style="normal">e</text>
    <defs>
      <mask id="mask_zy4qjv6yr8">
        <rect x="1023" y="20" width="41" height="24" fill="white"></rect>
      </mask>
    </defs>
  </g>
  <g opacity="100%" mask="url(#mask_4rredaxovb)">
    <text x="1079" y="38" font-family="Quicksand" font-size="16" fill="#f7ffff" letter-spacing="0" font-weight="normal" font-style="normal">Earning</text>
    <text x="1079" y="62" font-family="Quicksand" font-size="16" fill="#f7ffff" letter-spacing="0" font-weight="normal" font-style="normal">Mechanics</text>
    <defs>
      <mask id="mask_4rredaxovb">
        <rect x="1079" y="20" width="126" height="24" fill="white"></rect>
      </mask>
    </defs>
  </g>
  <g opacity="100%" mask="url(#mask_1l2n5ggww)">
    <text x="1220" y="38" font-family="Quicksand" font-size="16" fill="#f7ffff" letter-spacing="0" font-weight="normal" font-style="normal">Leaderboa</text>
    <text x="1220" y="62" font-family="Quicksand" font-size="16" fill="#f7ffff" letter-spacing="0" font-weight="normal" font-style="normal">rd</text>
    <defs>
      <mask id="mask_1l2n5ggww">
        <rect x="1220" y="20" width="86" height="24" fill="white"></rect>
      </mask>
    </defs>
  </g>
  <g opacity="100%" mask="url(#mask_jkua6ekke)">
    <text x="1322" y="38" font-family="Quicksand" font-size="16" fill="#f7ffff" letter-spacing="0" font-weight="normal" font-style="normal">Smart</text>
    <text x="1322" y="62" font-family="Quicksand" font-size="16" fill="#f7ffff" letter-spacing="0" font-weight="normal" font-style="normal">Contract</text>
    <defs>
      <mask id="mask_jkua6ekke">
        <rect x="1322" y="20" width="102" height="24" fill="white"></rect>
      </mask>
    </defs>
  </g>
  <g opacity="100%">
    <rect x="24.5" y="88.5" width="588" height="719" fill="#161211" stroke="#222224" stroke-width="1" rx="2" filter="url(#filter_dshadow_0_0_0_03030314)"></rect>
  </g>
  <g opacity="100%">
    <text x="48" y="142" font-family="Quicksand" font-size="32" fill="#f7ffff" letter-spacing="0" font-weight="600" font-style="normal">Earning Mechanics</text>
  </g>
  <svg xmlns="http://www.w3.org/2000/svg" viewBox="0 0 512 512" width="18" height="18" fill="#f7ffff" x="48" y="169" opacity="100%">
    <path d="M504 256c0 136.967-111.033 248-248 248S8 392.967 8 256 119.033 8 256 8s248 111.033 248 248zM227.314 387.314l184-184c6.248-6.248 6.248-16.379 0-22.627l-22.627-22.627c-6.248-6.249-16.379-6.249-22.628 0L216 308.118l-70.059-70.059c-6.248-6.248-16.379-6.248-22.628 0l-22.627 22.627c-6.248 6.248-6.248 16.379 0 22.627l104 104c6.249 6.249 16.379 6.249 22.628.001z"></path>
  </svg>
  <g opacity="100%" mask="url(#mask_ijy5ckljd)">
    <text x="74" y="182" font-family="Quicksand" font-size="16" fill="#f7ffff" letter-spacing="0" font-weight="normal" font-style="normal">Earn BST for Watching Full Movies (Ad-</text>
    <text x="74" y="206" font-family="Quicksand" font-size="16" fill="#f7ffff" letter-spacing="0" font-weight="normal" font-style="normal">Supported Only)</text>
    <defs>
      <mask id="mask_ijy5ckljd">
        <rect x="74" y="164" width="365" height="24" fill="white"></rect>
      </mask>
    </defs>
  </g>
  <svg xmlns="http://www.w3.org/2000/svg" viewBox="0 0 512 512" width="18" height="18" fill="#f7ffff" x="48" y="213" opacity="100%">
    <path d="M504 256c0 136.967-111.033 248-248 248S8 392.967 8 256 119.033 8 256 8s248 111.033 248 248zM227.314 387.314l184-184c6.248-6.248 6.248-16.379 0-22.627l-22.627-22.627c-6.248-6.249-16.379-6.249-22.628 0L216 308.118l-70.059-70.059c-6.248-6.248-16.379-6.248-22.628 0l-22.627 22.627c-6.248 6.248-6.248 16.379 0 22.627l104 104c6.249 6.249 16.379 6.249 22.628.001z"></path>
  </svg>
  <g opacity="100%" mask="url(#mask_guajuyor4c)">
    <text x="74" y="226" font-family="Quicksand" font-size="16" fill="#f7ffff" letter-spacing="0" font-weight="normal" font-style="normal">Bonus Tokens for Sharing &amp; Referring</text>
    <text x="74" y="250" font-family="Quicksand" font-size="16" fill="#f7ffff" letter-spacing="0" font-weight="normal" font-style="normal">Friends</text>
    <defs>
      <mask id="mask_guajuyor4c">
        <rect x="74" y="208" width="300" height="24" fill="white"></rect>
      </mask>
    </defs>
  </g>
  <svg xmlns="http://www.w3.org/2000/svg" viewBox="0 0 512 512" width="18" height="18" fill="#f7ffff" x="48" y="257" opacity="100%">
    <path d="M504 256c0 136.967-111.033 248-248 248S8 392.967 8 256 119.033 8 256 8s248 111.033 248 248zM227.314 387.314l184-184c6.248-6.248 6.248-16.379 0-22.627l-22.627-22.627c-6.248-6.249-16.379-6.249-22.628 0L216 308.118l-70.059-70.059c-6.248-6.248-16.379-6.248-22.628 0l-22.627 22.627c-6.248 6.248-6.248 16.379 0 22.627l104 104c6.249 6.249 16.379 6.249 22.628.001z"></path>
  </svg>
  <g opacity="100%" mask="url(#mask_t2iconqaoq)">
    <text x="74" y="270" font-family="Quicksand" font-size="16" fill="#f7ffff" letter-spacing="0" font-weight="normal" font-style="normal">Engage in Community Polls, Livestreams &amp; Earn</text>
    <text x="74" y="294" font-family="Quicksand" font-size="16" fill="#f7ffff" letter-spacing="0" font-weight="normal" font-style="normal">Tokens</text>
    <defs>
      <mask id="mask_t2iconqaoq">
        <rect x="74" y="252" width="367" height="24" fill="white"></rect>
      </mask>
    </defs>
  </g>
  <svg xmlns="http://www.w3.org/2000/svg" viewBox="0 0 576 512" width="21" height="21" fill="#f7ffff" x="48" y="299.5" opacity="100%">
    <path d="M552 64H448V24c0-13.3-10.7-24-24-24H152c-13.3 0-24 10.7-24 24v40H24C10.7 64 0 74.7 0 88v56c0 35.7 22.5 72.4 61.9 100.7 31.5 22.7 69.8 37.1 110 41.7C203.3 338.5 240 360 240 360v72h-48c-35.3 0-64 20.7-64 56v12c0 6.6 5.4 12 12 12h296c6.6 0 12-5.4 12-12v-12c0-35.3-28.7-56-64-56h-48v-72s36.7-21.5 68.1-73.6c40.3-4.6 78.6-19 110-41.7 39.3-28.3 61.9-65 61.9-100.7V88c0-13.3-10.7-24-24-24zM99.3 192.8C74.9 175.2 64 155.6 64 144v-16h64.2c1 32.6 5.8 61.2 12.8 86.2-15.1-5.2-29.2-12.4-41.7-21.4zM512 144c0 16.1-17.7 36.1-35.3 48.8-12.5 9-26.7 16.2-41.8 21.4 7-25 11.8-53.6 12.8-86.2H512v16z"></path>
  </svg>
  <g opacity="100%" mask="url(#mask_7vjwn9goqh)">
    <text x="76" y="314" font-family="Quicksand" font-size="16" fill="#f7ffff" letter-spacing="0" font-weight="normal" font-style="normal">Leaderboard System - Top Users Get Bonus</text>
    <text x="76" y="338" font-family="Quicksand" font-size="16" fill="#f7ffff" letter-spacing="0" font-weight="normal" font-style="normal">Rewards</text>
    <defs>
      <mask id="mask_7vjwn9goqh">
        <rect x="76" y="296" width="347" height="24" fill="white"></rect>
      </mask>
    </defs>
  </g>
  <g opacity="100%">
    <rect x="636.5" y="88.5" width="588" height="719" fill="#161211" stroke="#222224" stroke-width="1" rx="2" filter="url(#filter_dshadow_0_0_0_03030314)"></rect>
  </g>
  <g opacity="100%">
    <text x="660" y="142" font-family="Quicksand" font-size="32" fill="#f7ffff" letter-spacing="0" font-weight="600" font-style="normal">Smart Contract for Watch-to-Earn</text>
  </g>
  <g opacity="100%" mask="url(#mask_mzl1baaqo)">
    <text x="660" y="182" font-family="Quicksand" font-size="16" fill="#f7ffff" letter-spacing="0" font-weight="normal" font-style="normal">Our Smart Contract, developed in Solidity, ensures secure and</text>
    <text x="660" y="206" font-family="Quicksand" font-size="16" fill="#f7ffff" letter-spacing="0" font-weight="normal" font-style="normal">transparent transactions. Users can earn tokens by engaging with</text>
    <text x="660" y="230" font-family="Quicksand" font-size="16" fill="#f7ffff" letter-spacing="0" font-weight="normal" font-style="normal">content, and the contract automatically manages token distribution</text>
    <text x="660" y="254" font-family="Quicksand" font-size="16" fill="#f7ffff" letter-spacing="0" font-weight="normal" font-style="normal">based on participation.</text>
    <defs>
      <mask id="mask_mzl1baaqo">
        <rect x="660" y="164" width="541" height="72" fill="white"></rect>
      </mask>
    </defs>
  </g>
  <g opacity="100%">
    <rect filter="url(#filter_dshadow_0_0_0_03030314)" x="660" y="252" width="107" height="40" fill="#9663dd" rx="2"></rect>
    <text x="671" y="278" font-family="Quicksand" font-size="16" fill="#0e0e0c" letter-spacing="0" font-weight="normal" font-style="normal">
      <tspan>Learn More</tspan>
    </text>
  </g>
  <g opacity="100%">
    <rect x="1249.5" y="88.5" width="166" height="719" fill="#161211" stroke="#222224" stroke-width="1" rx="2" filter="url(#filter_dshadow_0_0_0_03030314)"></rect>
  </g>
  <g opacity="100%">
    <text x="1273" y="132.5" font-family="Quicksand" font-size="18" fill="#f7ffff" letter-spacing="0" font-weight="600" font-style="normal">Leaderboard</text>
  </g>
  <g opacity="100%" mask="url(#mask_9vrgjnifd)">
    <text x="1273" y="174" font-family="Quicksand" font-size="16" fill="#f7ffff" letter-spacing="0" font-weight="normal" font-style="normal">User</text>
    <text x="1273" y="198" font-family="Quicksand" font-size="16" fill="#f7ffff" letter-spacing="0" font-weight="normal" font-style="normal">1</text>
    <defs>
      <mask id="mask_9vrgjnifd">
        <rect x="1273" y="156" width="39" height="24" fill="white"></rect>
      </mask>
    </defs>
  </g>
  <g opacity="100%" mask="url(#mask_n3f2rikgxp)">
    <text x="1328" y="174" font-family="Quicksand" font-size="16" fill="#f7ffff" letter-spacing="0" font-weight="700" font-style="normal">1500</text>
    <text x="1328" y="198" font-family="Quicksand" font-size="16" fill="#f7ffff" letter-spacing="0" font-weight="700" font-style="normal">BST</text>
    <defs>
      <mask id="mask_n3f2rikgxp">
        <rect x="1328" y="156" width="64" height="24" fill="white"></rect>
      </mask>
    </defs>
  </g>
  <g opacity="100%" mask="url(#mask_hhvf4qm4yh)">
    <text x="1273" y="214" font-family="Quicksand" font-size="16" fill="#f7ffff" letter-spacing="0" font-weight="normal" font-style="normal">User</text>
    <text x="1273" y="238" font-family="Quicksand" font-size="16" fill="#f7ffff" letter-spacing="0" font-weight="normal" font-style="normal">2</text>
    <defs>
      <mask id="mask_hhvf4qm4yh">
        <rect x="1273" y="196" width="39" height="24" fill="white"></rect>
      </mask>
    </defs>
  </g>
  <g opacity="100%" mask="url(#mask_zteylp7tbr)">
    <text x="1328" y="214" font-family="Quicksand" font-size="16" fill="#f7ffff" letter-spacing="0" font-weight="700" font-style="normal">1400</text>
    <text x="1328" y="238" font-family="Quicksand" font-size="16" fill="#f7ffff" letter-spacing="0" font-weight="700" font-style="normal">BST</text>
    <defs>
      <mask id="mask_zteylp7tbr">
        <rect x="1328" y="196" width="64" height="24" fill="white"></rect>
      </mask>
    </defs>
  </g>
  <g opacity="100%" mask="url(#mask_t0aqwz7wn9)">
    <text x="1273" y="254" font-family="Quicksand" font-size="16" fill="#f7ffff" letter-spacing="0" font-weight="normal" font-style="normal">User</text>
    <text x="1273" y="278" font-family="Quicksand" font-size="16" fill="#f7ffff" letter-spacing="0" font-weight="normal" font-style="normal">3</text>
    <defs>
      <mask id="mask_t0aqwz7wn9">
        <rect x="1273" y="236" width="39" height="24" fill="white"></rect>
      </mask>
    </defs>
  </g>
  <g opacity="100%" mask="url(#mask_8dz2vz54ov)">
    <text x="1328" y="254" font-family="Quicksand" font-size="16" fill="#f7ffff" letter-spacing="0" font-weight="700" font-style="normal">1300</text>
    <text x="1328" y="278" font-family="Quicksand" font-size="16" fill="#f7ffff" letter-spacing="0" font-weight="700" font-style="normal">BST</text>
    <defs>
      <mask id="mask_8dz2vz54ov">
        <rect x="1328" y="236" width="64" height="24" fill="white"></rect>
      </mask>
    </defs>
  </g>
  <g opacity="100%" mask="url(#mask_ixex9qpdrp)">
    <text x="1273" y="294" font-family="Quicksand" font-size="16" fill="#f7ffff" letter-spacing="0" font-weight="normal" font-style="normal">User</text>
    <text x="1273" y="318" font-family="Quicksand" font-size="16" fill="#f7ffff" letter-spacing="0" font-weight="normal" font-style="normal">4</text>
    <defs>
      <mask id="mask_ixex9qpdrp">
        <rect x="1273" y="276" width="39" height="24" fill="white"></rect>
      </mask>
    </defs>
  </g>
  <g opacity="100%" mask="url(#mask_kz5m5z3hba)">
    <text x="1328" y="294" font-family="Quicksand" font-size="16" fill="#f7ffff" letter-spacing="0" font-weight="700" font-style="normal">1200</text>
    <text x="1328" y="318" font-family="Quicksand" font-size="16" fill="#f7ffff" letter-spacing="0" font-weight="700" font-style="normal">BST</text>
    <defs>
      <mask id="mask_kz5m5z3hba">
        <rect x="1328" y="276" width="64" height="24" fill="white"></rect>
      </mask>
    </defs>
  </g>
  <g opacity="100%">
    <rect x="0" y="832" width="1440" height="68" fill="#222224" filter="url(#filter_dshadow_0_0_2_03030314)"></rect>
  </g>
  <g opacity="100%" mask="url(#mask_njr3vj9cx7)">
    <text x="24" y="871" font-family="Quicksand" font-size="14" fill="#fff" letter-spacing="0" font-weight="normal" font-style="normal">Privacy</text>
    <text x="24" y="891" font-family="Quicksand" font-size="14" fill="#fff" letter-spacing="0" font-weight="normal" font-style="normal">Policy</text>
    <defs>
      <mask id="mask_njr3vj9cx7">
        <rect x="24" y="856" width="81" height="20" fill="white"></rect>
      </mask>
    </defs>
  </g>
  <g opacity="100%" mask="url(#mask_ot002q284d)">
    <text x="120" y="871" font-family="Quicksand" font-size="14" fill="#fff" letter-spacing="0" font-weight="normal" font-style="normal">Terms of</text>
    <text x="120" y="891" font-family="Quicksand" font-size="14" fill="#fff" letter-spacing="0" font-weight="normal" font-style="normal">Service</text>
    <defs>
      <mask id="mask_ot002q284d">
        <rect x="120" y="856" width="96" height="20" fill="white"></rect>
      </mask>
    </defs>
  </g>
  <g opacity="100%" mask="url(#mask_ye2xj1d65q)">
    <text x="232" y="871" font-family="Quicksand" font-size="14" fill="#fff" letter-spacing="0" font-weight="normal" font-style="normal">Contact</text>
    <text x="232" y="891" font-family="Quicksand" font-size="14" fill="#fff" letter-spacing="0" font-weight="normal" font-style="normal">Us</text>
    <defs>
      <mask id="mask_ye2xj1d65q">
        <rect x="232" y="856" width="64" height="20" fill="white"></rect>
      </mask>
    </defs>
  </g>
  <svg xmlns="http://www.w3.org/2000/svg" viewBox="0 0 512 512" width="16" height="16" fill="#fff" x="1338" y="858" opacity="100%">
    <path d="M504 256C504 119 393 8 256 8S8 119 8 256c0 123.78 90.69 226.38 209.25 245V327.69h-63V256h63v-54.64c0-62.15 37-96.48 93.67-96.48 27.14 0 55.52 4.84 55.52 4.84v61h-31.28c-30.8 0-40.41 19.12-40.41 38.73V256h68.78l-11 71.69h-57.78V501C413.31 482.38 504 379.78 504 256z"></path>
  </svg>
  <svg xmlns="http://www.w3.org/2000/svg" viewBox="0 0 512 512" width="16" height="16" fill="#fff" x="1370" y="858" opacity="100%">
    <path d="M459.37 151.716c.325 4.548.325 9.097.325 13.645 0 138.72-105.583 298.558-298.558 298.558-59.452 0-114.68-17.219-161.137-47.106 8.447.974 16.568 1.299 25.34 1.299 49.055 0 94.213-16.568 130.274-44.832-46.132-.975-84.792-31.188-98.112-72.772 6.498.974 12.995 1.624 19.818 1.624 9.421 0 18.843-1.3 27.614-3.573-48.081-9.747-84.143-51.98-84.143-102.985v-1.299c13.969 7.797 30.214 12.67 47.431 13.319-28.264-18.843-46.781-51.005-46.781-87.391 0-19.492 5.197-37.36 14.294-52.954 51.655 63.675 129.3 105.258 216.365 109.807-1.624-7.797-2.599-15.918-2.599-24.04 0-57.828 46.782-104.934 104.934-104.934 30.213 0 57.502 12.67 76.67 33.137 23.715-4.548 46.456-13.32 66.599-25.34-7.798 24.366-24.366 44.833-46.132 57.827 21.117-2.273 41.584-8.122 60.426-16.243-14.292 20.791-32.161 39.308-52.628 54.253z"></path>
  </svg>
  <svg xmlns="http://www.w3.org/2000/svg" viewBox="0 0 448 512" width="14" height="14" fill="#fff" x="1402" y="859" opacity="100%">
    <path d="M224.1 141c-63.6 0-114.9 51.3-114.9 114.9s51.3 114.9 114.9 114.9S339 319.5 339 255.9 287.7 141 224.1 141zm0 189.6c-41.1 0-74.7-33.5-74.7-74.7s33.5-74.7 74.7-74.7 74.7 33.5 74.7 74.7-33.6 74.7-74.7 74.7zm146.4-194.3c0 14.9-12 26.8-26.8 26.8-14.9 0-26.8-12-26.8-26.8s12-26.8 26.8-26.8 26.8 12 26.8 26.8zm76.1 27.2c-1.7-35.9-9.9-67.7-36.2-93.9-26.2-26.2-58-34.4-93.9-36.2-37-2.1-147.9-2.1-184.9 0-35.8 1.7-67.6 9.9-93.9 36.1s-34.4 58-36.2 93.9c-2.1 37-2.1 147.9 0 184.9 1.7 35.9 9.9 67.7 36.2 93.9s58 34.4 93.9 36.2c37 2.1 147.9 2.1 184.9 0 35.9-1.7 67.7-9.9 93.9-36.2 26.2-26.2 34.4-58 36.2-93.9 2.1-37 2.1-147.8 0-184.8zM398.8 388c-7.8 19.6-22.9 34.7-42.6 42.6-29.5 11.7-99.5 9-132.1 9s-102.7 2.6-132.1-9c-19.6-7.8-34.7-22.9-42.6-42.6-11.7-29.5-9-99.5-9-132.1s-2.6-102.7 9-132.1c7.8-19.6 22.9-34.7 42.6-42.6 29.5-11.7 99.5-9 132.1-9s102.7-2.6 132.1 9c19.6 7.8 34.7 22.9 42.6 42.6 11.7 29.5 9 99.5 9 132.1s2.7 102.7-9 132.1z"></path>
  </svg>
  <defs>
    <filter id="filter_dshadow_0_0_2_03030314" color-interpolation-filters="sRGB" filterUnits="userSpaceOnUse">
      <feFlood flood-opacity="0" result="bg-fix"></feFlood>
      <feColorMatrix in="SourceAlpha" type="matrix" values="0 0 0 0 0 0 0 0 0 0 0 0 0 0 0 0 0 0 127 0" result="alpha"></feColorMatrix>
      <feOffset dx="0" dy="2"></feOffset>
      <feGaussianBlur stdDeviation="0"></feGaussianBlur>
      <feComposite in2="alpha" operator="out"></feComposite>
      <feColorMatrix type="matrix" values="0 0 0 0 0.011764705882352941 0 0 0 0 0.011764705882352941 0 0 0 0 0.011764705882352941 0 0 0 0.08 0"></feColorMatrix>
      <feBlend mode="normal" in2="bg-fix" result="bg-fix-filter_dshadow_0_0_2_03030314"></feBlend>
      <feBlend in="SourceGraphic" in2="bg-fix-filter_dshadow_0_0_2_03030314" result="shape"></feBlend>
    </filter>
    <filter id="filter_dshadow_0_0_0_000000639c" color-interpolation-filters="sRGB" filterUnits="userSpaceOnUse">
      <feFlood flood-opacity="0" result="bg-fix"></feFlood>
      <feColorMatrix in="SourceAlpha" type="matrix" values="0 0 0 0 0 0 0 0 0 0 0 0 0 0 0 0 0 0 127 0" result="alpha"></feColorMatrix>
      <feOffset dx="0" dy="0"></feOffset>
      <feGaussianBlur stdDeviation="0"></feGaussianBlur>
      <feComposite in2="alpha" operator="out"></feComposite>
      <feColorMatrix type="matrix" values="0 0 0 0 0 0 0 0 0 0 0 0 0 0 0 0 0 0 100 0"></feColorMatrix>
      <feBlend mode="normal" in2="bg-fix" result="bg-fix-filter_dshadow_0_0_0_000000639c"></feBlend>
      <feBlend in="SourceGraphic" in2="bg-fix-filter_dshadow_0_0_0_000000639c" result="shape"></feBlend>
    </filter>
    <filter id="filter_dshadow_0_0_0_03030314" color-interpolation-filters="sRGB" filterUnits="userSpaceOnUse">
      <feFlood flood-opacity="0" result="bg-fix"></feFlood>
      <feColorMatrix in="SourceAlpha" type="matrix" values="0 0 0 0 0 0 0 0 0 0 0 0 0 0 0 0 0 0 127 0" result="alpha"></feColorMatrix>
      <feOffset dx="0" dy="0"></feOffset>
      <feGaussianBlur stdDeviation="0"></feGaussianBlur>
      <feComposite in2="alpha" operator="out"></feComposite>
      <feColorMatrix type="matrix" values="0 0 0 0 0.011764705882352941 0 0 0 0 0.011764705882352941 0 0 0 0 0.011764705882352941 0 0 0 0.08 0"></feColorMatrix>
      <feBlend mode="normal" in2="bg-fix" result="bg-fix-filter_dshadow_0_0_0_03030314"></feBlend>
      <feBlend in="SourceGraphic" in2="bg-fix-filter_dshadow_0_0_0_03030314" result="shape"></feBlend>
    </filter>
    <style id="google">@import url(https://fonts.googleapis.com/css2?family=Quicksand:ital,wght@0,300;0,400;0,500;0,600;0,700&amp;display=swap);
</style>
    <style id="brand"></style>
  </defs>
</svg>